<?xml version="1.0" encoding="UTF-8" standalone="no"?><svg xmlns="http://www.w3.org/2000/svg" xmlns:xlink="http://www.w3.org/1999/xlink" contentStyleType="text/css" height="171px" preserveAspectRatio="none" style="width:881px;height:171px;background:#FFFFFF;" version="1.1" viewBox="0 0 881 171" width="881px" zoomAndPan="magnify"><defs/><g><!--MD5=[c4f855dbe61583f9e7e86f378d1e1266]
class IViewObserver--><g id="elem_IViewObserver"><rect codeLine="3" fill="#F1F1F1" height="79.2813" id="IViewObserver" rx="2.5" ry="2.5" style="stroke:#181818;stroke-width:0.5;" width="328" x="7" y="46"/><ellipse cx="121.25" cy="62" fill="#B4A7E5" rx="11" ry="11" style="stroke:#181818;stroke-width:1.0;"/><path d="M122.2031,58.6406 L122.2031,65.2969 L123.9219,65.2969 Q124.5313,65.2969 124.7969,65.5313 Q125.0625,65.7656 125.0625,66.1563 Q125.0625,66.5313 124.7969,66.7656 Q124.5313,67 123.9219,67 L118.7813,67 Q118.1719,67 117.9063,66.7656 Q117.6406,66.5313 117.6406,66.1406 Q117.6406,65.7656 117.9063,65.5313 Q118.1719,65.2969 118.7813,65.2969 L120.5,65.2969 L120.5,58.6406 L118.7813,58.6406 Q118.1719,58.6406 117.9063,58.4063 Q117.6406,58.1719 117.6406,57.7813 Q117.6406,57.4063 117.9063,57.1719 Q118.1719,56.9375 118.7813,56.9375 L123.9219,56.9375 Q124.5313,56.9375 124.7969,57.1719 Q125.0625,57.4063 125.0625,57.7813 Q125.0625,58.1719 124.7969,58.4063 Q124.5313,58.6406 123.9219,58.6406 L122.2031,58.6406 Z " fill="#000000"/><text fill="#000000" font-family="sans-serif" font-size="14" font-style="italic" lengthAdjust="spacing" textLength="91" x="141.75" y="66.8535">IViewObserver</text><line style="stroke:#181818;stroke-width:0.5;" x1="8" x2="334" y1="78" y2="78"/><line style="stroke:#181818;stroke-width:0.5;" x1="8" x2="334" y1="86" y2="86"/><ellipse cx="18" cy="99.3203" fill="#84BE84" rx="3" ry="3" style="stroke:#038048;stroke-width:1.0;"/><text fill="#000000" font-family="sans-serif" font-size="14" lengthAdjust="spacing" textLength="199" x="27" y="102.6738">tileClicked(posX : int, posY : int)</text><ellipse cx="18" cy="114.9609" fill="#84BE84" rx="3" ry="3" style="stroke:#038048;stroke-width:1.0;"/><text fill="#000000" font-family="sans-serif" font-size="14" lengthAdjust="spacing" textLength="302" x="27" y="118.3145">upgradePawn(type :String, posX : int, posY : int)</text></g><!--MD5=[64a1ac72007cb7f57807247684a3decb]
class IModelObserver--><g id="elem_IModelObserver"><rect codeLine="9" fill="#F1F1F1" height="157.4844" id="IModelObserver" rx="2.5" ry="2.5" style="stroke:#181818;stroke-width:0.5;" width="504" x="370" y="7"/><ellipse cx="567.25" cy="23" fill="#B4A7E5" rx="11" ry="11" style="stroke:#181818;stroke-width:1.0;"/><path d="M568.2031,19.6406 L568.2031,26.2969 L569.9219,26.2969 Q570.5313,26.2969 570.7969,26.5313 Q571.0625,26.7656 571.0625,27.1563 Q571.0625,27.5313 570.7969,27.7656 Q570.5313,28 569.9219,28 L564.7813,28 Q564.1719,28 563.9063,27.7656 Q563.6406,27.5313 563.6406,27.1406 Q563.6406,26.7656 563.9063,26.5313 Q564.1719,26.2969 564.7813,26.2969 L566.5,26.2969 L566.5,19.6406 L564.7813,19.6406 Q564.1719,19.6406 563.9063,19.4063 Q563.6406,19.1719 563.6406,18.7813 Q563.6406,18.4063 563.9063,18.1719 Q564.1719,17.9375 564.7813,17.9375 L569.9219,17.9375 Q570.5313,17.9375 570.7969,18.1719 Q571.0625,18.4063 571.0625,18.7813 Q571.0625,19.1719 570.7969,19.4063 Q570.5313,19.6406 569.9219,19.6406 L568.2031,19.6406 Z " fill="#000000"/><text fill="#000000" font-family="sans-serif" font-size="14" font-style="italic" lengthAdjust="spacing" textLength="101" x="587.75" y="27.8535">IModelObserver</text><line style="stroke:#181818;stroke-width:0.5;" x1="371" x2="873" y1="39" y2="39"/><line style="stroke:#181818;stroke-width:0.5;" x1="371" x2="873" y1="47" y2="47"/><ellipse cx="381" cy="60.3203" fill="#84BE84" rx="3" ry="3" style="stroke:#038048;stroke-width:1.0;"/><text fill="#000000" font-family="sans-serif" font-size="14" lengthAdjust="spacing" textLength="399" x="390" y="63.6738">startGame(whitePlayerName : String, blackPlayerName : String)</text><ellipse cx="381" cy="75.9609" fill="#84BE84" rx="3" ry="3" style="stroke:#038048;stroke-width:1.0;"/><text fill="#000000" font-family="sans-serif" font-size="14" lengthAdjust="spacing" textLength="136" x="390" y="79.3145">tileSelected(tile : Tile)</text><ellipse cx="381" cy="91.6016" fill="#84BE84" rx="3" ry="3" style="stroke:#038048;stroke-width:1.0;"/><text fill="#000000" font-family="sans-serif" font-size="14" lengthAdjust="spacing" textLength="159" x="390" y="94.9551">movePiece(move : Move)</text><ellipse cx="381" cy="107.2422" fill="#84BE84" rx="3" ry="3" style="stroke:#038048;stroke-width:1.0;"/><text fill="#000000" font-family="sans-serif" font-size="14" lengthAdjust="spacing" textLength="478" x="390" y="110.5957">checkedKing(whiteKingIsChecked : boolean, blackKingIsChecked : boolean)</text><ellipse cx="381" cy="122.8828" fill="#84BE84" rx="3" ry="3" style="stroke:#038048;stroke-width:1.0;"/><text fill="#000000" font-family="sans-serif" font-size="14" lengthAdjust="spacing" textLength="271" x="390" y="126.2363">openEndGameDialog(winnerName : String)</text><ellipse cx="381" cy="138.5234" fill="#84BE84" rx="3" ry="3" style="stroke:#038048;stroke-width:1.0;"/><text fill="#000000" font-family="sans-serif" font-size="14" lengthAdjust="spacing" textLength="241" x="390" y="141.877">openUpgradePawnDialog(x :int, y : int)</text><ellipse cx="381" cy="154.1641" fill="#84BE84" rx="3" ry="3" style="stroke:#038048;stroke-width:1.0;"/><text fill="#000000" font-family="sans-serif" font-size="14" lengthAdjust="spacing" textLength="252" x="390" y="157.5176">upgradePawn(type : String, x :int, y : int)</text></g><!--MD5=[6df0e26be770a8abbe62808cd258fdff]
@startuml
'https://plantuml.com/class-diagram

interface IViewObserver
{
    + tileClicked(posX : int, posY : int)
    + upgradePawn(type :String, posX : int, posY : int)
}

interface IModelObserver
{
    + startGame(whitePlayerName : String, blackPlayerName : String)
    + tileSelected(tile : Tile)
    + movePiece(move : Move)
    + checkedKing(whiteKingIsChecked : boolean, blackKingIsChecked : boolean)
    + openEndGameDialog(winnerName : String)
    + openUpgradePawnDialog(x :int, y : int)
    + upgradePawn(type : String, x :int, y : int)
    
}

@enduml

@startuml

interface IViewObserver
{
    + tileClicked(posX : int, posY : int)
    + upgradePawn(type :String, posX : int, posY : int)
}

interface IModelObserver
{
    + startGame(whitePlayerName : String, blackPlayerName : String)
    + tileSelected(tile : Tile)
    + movePiece(move : Move)
    + checkedKing(whiteKingIsChecked : boolean, blackKingIsChecked : boolean)
    + openEndGameDialog(winnerName : String)
    + openUpgradePawnDialog(x :int, y : int)
    + upgradePawn(type : String, x :int, y : int)
    
}

@enduml

PlantUML version 1.2022.12(Sun Oct 23 20:12:26 CEST 2022)
(GPL source distribution)
Java Runtime: OpenJDK Runtime Environment
JVM: OpenJDK 64-Bit Server VM
Default Encoding: Cp1252
Language: fr
Country: FR
--></g></svg>