<?xml version="1.0" encoding="UTF-8" standalone="no"?>
<svg xmlns="http://www.w3.org/2000/svg" contentStyleType="text/css" height="248px" preserveAspectRatio="none"
     style="width:408px;height:248px;background:#FFFFFF;" version="1.1" viewBox="0 0 408 248" width="408px"
     zoomAndPan="magnify"><defs/><g><!--MD5=[d033de46590f850ffdf7ae6d070a6158]
class ChessBoard--><g id="elem_ChessBoard"><rect codeLine="3" fill="#F1F1F1" height="126.2031" id="ChessBoard" rx="2.5" ry="2.5" style="stroke:#181818;stroke-width:0.5;" width="262" x="7" y="7"/><ellipse cx="94.75" cy="23" fill="#ADD1B2" rx="11" ry="11" style="stroke:#181818;stroke-width:1.0;"/><path d="M97.5156,18.875 Q97.6719,18.6563 97.8594,18.5469 Q98.0469,18.4375 98.2656,18.4375 Q98.6406,18.4375 98.875,18.7031 Q99.1094,18.9531 99.1094,19.5625 L99.1094,21.0156 Q99.1094,21.625 98.875,21.8906 Q98.6406,22.1563 98.2656,22.1563 Q97.9219,22.1563 97.7188,21.9531 Q97.5156,21.7656 97.4063,21.25 Q97.3594,20.8906 97.1719,20.7031 Q96.8438,20.3281 96.2344,20.1094 Q95.625,19.8906 95,19.8906 Q94.2344,19.8906 93.5938,20.2188 Q92.9688,20.5469 92.4688,21.2969 Q91.9844,22.0469 91.9844,23.0781 L91.9844,24.1719 Q91.9844,25.4063 92.875,26.2344 Q93.7656,27.0469 95.3594,27.0469 Q96.2969,27.0469 96.9531,26.7969 Q97.3438,26.6406 97.7656,26.2031 Q98.0313,25.9375 98.1719,25.8594 Q98.3281,25.7813 98.5313,25.7813 Q98.8594,25.7813 99.1094,26.0469 Q99.375,26.2969 99.375,26.6406 Q99.375,26.9844 99.0313,27.3906 Q98.5313,27.9688 97.7344,28.2969 Q96.6563,28.75 95.3594,28.75 Q93.8438,28.75 92.6406,28.125 Q91.6563,27.625 90.9688,26.5625 Q90.2813,25.4844 90.2813,24.2031 L90.2813,23.0469 Q90.2813,21.7188 90.8906,20.5781 Q91.5156,19.4219 92.6094,18.8125 Q93.7031,18.1875 94.9375,18.1875 Q95.6719,18.1875 96.3125,18.3594 Q96.9688,18.5156 97.5156,18.875 Z " fill="#000000"/><text fill="#000000" font-family="sans-serif" font-size="14" lengthAdjust="spacing" textLength="78" x="115.25" y="27.8535">ChessBoard</text><line style="stroke:#181818;stroke-width:0.5;" x1="8" x2="268" y1="39" y2="39"/><rect fill="none" height="6" style="stroke:#C82930;stroke-width:1.0;" width="6" x="15" y="49.3203"/><text fill="#000000" font-family="sans-serif" font-size="14" lengthAdjust="spacing" textLength="180" x="27" y="55.6738">TILES : JPanel[][] {readOnly}</text><rect fill="none" height="6" style="stroke:#C82930;stroke-width:1.0;" width="6" x="15" y="64.9609"/><text fill="#000000" font-family="sans-serif" font-size="14" lengthAdjust="spacing" textLength="159" x="27" y="71.3145">observer : IViewObserver</text><rect fill="none" height="6" style="stroke:#C82930;stroke-width:1.0;" width="6" x="15" y="80.6016"/><text fill="#000000" font-family="sans-serif" font-size="14" lengthAdjust="spacing" textLength="175" x="27" y="86.9551">leapedWhitePieces : JPanel</text><rect fill="none" height="6" style="stroke:#C82930;stroke-width:1.0;" width="6" x="15" y="96.2422"/><text fill="#000000" font-family="sans-serif" font-size="14" lengthAdjust="spacing" textLength="173" x="27" y="102.5957">leapedBlackPieces : JPanel</text><line style="stroke:#181818;stroke-width:0.5;" x1="8" x2="268" y1="109.5625" y2="109.5625"/><ellipse cx="18" cy="122.8828" fill="#84BE84" rx="3" ry="3" style="stroke:#038048;stroke-width:1.0;"/><text fill="#000000" font-family="sans-serif" font-size="14" lengthAdjust="spacing" textLength="236" x="27" y="126.2363">«Create» ChessBoard(game : Game)</text></g><!--MD5=[80806e08dac105db4bf03e60335471e4]
class MainMenu--><g id="elem_MainMenu"><rect codeLine="13" fill="#F1F1F1" height="48" id="MainMenu" rx="2.5" ry="2.5" style="stroke:#181818;stroke-width:0.5;" width="97" x="304.5" y="46"/><ellipse cx="319.5" cy="62" fill="#ADD1B2" rx="11" ry="11" style="stroke:#181818;stroke-width:1.0;"/><path d="M322.2656,57.875 Q322.4219,57.6563 322.6094,57.5469 Q322.7969,57.4375 323.0156,57.4375 Q323.3906,57.4375 323.625,57.7031 Q323.8594,57.9531 323.8594,58.5625 L323.8594,60.0156 Q323.8594,60.625 323.625,60.8906 Q323.3906,61.1563 323.0156,61.1563 Q322.6719,61.1563 322.4688,60.9531 Q322.2656,60.7656 322.1563,60.25 Q322.1094,59.8906 321.9219,59.7031 Q321.5938,59.3281 320.9844,59.1094 Q320.375,58.8906 319.75,58.8906 Q318.9844,58.8906 318.3438,59.2188 Q317.7188,59.5469 317.2188,60.2969 Q316.7344,61.0469 316.7344,62.0781 L316.7344,63.1719 Q316.7344,64.4063 317.625,65.2344 Q318.5156,66.0469 320.1094,66.0469 Q321.0469,66.0469 321.7031,65.7969 Q322.0938,65.6406 322.5156,65.2031 Q322.7813,64.9375 322.9219,64.8594 Q323.0781,64.7813 323.2813,64.7813 Q323.6094,64.7813 323.8594,65.0469 Q324.125,65.2969 324.125,65.6406 Q324.125,65.9844 323.7813,66.3906 Q323.2813,66.9688 322.4844,67.2969 Q321.4063,67.75 320.1094,67.75 Q318.5938,67.75 317.3906,67.125 Q316.4063,66.625 315.7188,65.5625 Q315.0313,64.4844 315.0313,63.2031 L315.0313,62.0469 Q315.0313,60.7188 315.6406,59.5781 Q316.2656,58.4219 317.3594,57.8125 Q318.4531,57.1875 319.6875,57.1875 Q320.4219,57.1875 321.0625,57.3594 Q321.7188,57.5156 322.2656,57.875 Z " fill="#000000"/><text fill="#000000" font-family="sans-serif" font-size="14" lengthAdjust="spacing" textLength="65" x="333.5" y="66.8535">MainMenu</text><line style="stroke:#181818;stroke-width:0.5;" x1="305.5" x2="400.5" y1="78" y2="78"/><line style="stroke:#181818;stroke-width:0.5;" x1="305.5" x2="400.5" y1="86" y2="86"/></g><!--MD5=[c4f855dbe61583f9e7e86f378d1e1266]
class IViewObserver--><g id="elem_IViewObserver"><rect codeLine="17" fill="#F1F1F1" height="48" id="IViewObserver" rx="2.5" ry="2.5" style="stroke:#181818;stroke-width:0.5;" width="123" x="76.5" y="193"/><ellipse cx="91.5" cy="209" fill="#B4A7E5" rx="11" ry="11" style="stroke:#181818;stroke-width:1.0;"/><path d="M92.4531,205.6406 L92.4531,212.2969 L94.1719,212.2969 Q94.7813,212.2969 95.0469,212.5313 Q95.3125,212.7656 95.3125,213.1563 Q95.3125,213.5313 95.0469,213.7656 Q94.7813,214 94.1719,214 L89.0313,214 Q88.4219,214 88.1563,213.7656 Q87.8906,213.5313 87.8906,213.1406 Q87.8906,212.7656 88.1563,212.5313 Q88.4219,212.2969 89.0313,212.2969 L90.75,212.2969 L90.75,205.6406 L89.0313,205.6406 Q88.4219,205.6406 88.1563,205.4063 Q87.8906,205.1719 87.8906,204.7813 Q87.8906,204.4063 88.1563,204.1719 Q88.4219,203.9375 89.0313,203.9375 L94.1719,203.9375 Q94.7813,203.9375 95.0469,204.1719 Q95.3125,204.4063 95.3125,204.7813 Q95.3125,205.1719 95.0469,205.4063 Q94.7813,205.6406 94.1719,205.6406 L92.4531,205.6406 Z " fill="#000000"/><text fill="#000000" font-family="sans-serif" font-size="14" font-style="italic" lengthAdjust="spacing" textLength="91" x="105.5" y="213.8535">IViewObserver</text><line style="stroke:#181818;stroke-width:0.5;" x1="77.5" x2="198.5" y1="225" y2="225"/><line style="stroke:#181818;stroke-width:0.5;" x1="77.5" x2="198.5" y1="233" y2="233"/></g><!--MD5=[3acc7bedbfea3429811b47b5fe5a1ee7]
link ChessBoard to IViewObserver--><g id="link_ChessBoard_IViewObserver"><path codeLine="21" d="M138,145.33 C138,145.33 138,169.36 138,179.4 " fill="none" id="ChessBoard-IViewObserver" style="stroke:#181818;stroke-width:1.0;"/><polygon fill="#181818" points="138,192.65,142,183.65,138,187.65,134,183.65,138,192.65" style="stroke:#181818;stroke-width:1.0;"/><line style="stroke:#181818;stroke-width:1.0;" x1="138" x2="138" y1="187.65" y2="179.65"/><polygon fill="#181818" points="138,133.33,134,139.33,138,145.33,142,139.33,138,133.33" style="stroke:#181818;stroke-width:1.0;"/><text fill="#000000" font-family="sans-serif" font-size="13" lengthAdjust="spacing" textLength="67" x="61.9969" y="182.0636">implements</text></g><!--MD5=[34bd4af142b36acd890c22c13fa95976]
@startuml
'https://plantuml.com/class-diagram

class ChessBoard
{
    - TILES : JPanel[][] {readOnly}
    - observer : IViewObserver
    - leapedWhitePieces : JPanel
    - leapedBlackPieces : JPanel
    + <<Create>> ChessBoard(game : Game)

}

class MainMenu
{
}

interface IViewObserver
{
}

ChessBoard *- -> "implements" IViewObserver


@enduml

@startuml

class ChessBoard
{
    - TILES : JPanel[][] {readOnly}
    - observer : IViewObserver
    - leapedWhitePieces : JPanel
    - leapedBlackPieces : JPanel
    + <<Create>> ChessBoard(game : Game)

}

class MainMenu
{
}

interface IViewObserver
{
}

ChessBoard *- -> "implements" IViewObserver


@enduml

PlantUML version 1.2022.12(Sun Oct 23 20:12:26 CEST 2022)
(GPL source distribution)
Java Runtime: OpenJDK Runtime Environment
JVM: OpenJDK 64-Bit Server VM
Default Encoding: Cp1252
Language: fr
Country: FR
--></g></svg>