<?xml version="1.0" encoding="UTF-8" standalone="no"?><svg xmlns="http://www.w3.org/2000/svg" xmlns:xlink="http://www.w3.org/1999/xlink" contentStyleType="text/css" height="155px" preserveAspectRatio="none" style="width:699px;height:155px;background:#FFFFFF;" version="1.1" viewBox="0 0 699 155" width="699px" zoomAndPan="magnify"><defs/><g><!--MD5=[c4f855dbe61583f9e7e86f378d1e1266]
class IViewObserver--><g id="elem_IViewObserver"><rect codeLine="3" fill="#F1F1F1" height="63.6406" id="IViewObserver" rx="2.5" ry="2.5" style="stroke:#181818;stroke-width:0.5;" width="225" x="7" y="46"/><ellipse cx="69.75" cy="62" fill="#B4A7E5" rx="11" ry="11" style="stroke:#181818;stroke-width:1.0;"/><path d="M70.7031,58.6406 L70.7031,65.2969 L72.4219,65.2969 Q73.0313,65.2969 73.2969,65.5313 Q73.5625,65.7656 73.5625,66.1563 Q73.5625,66.5313 73.2969,66.7656 Q73.0313,67 72.4219,67 L67.2813,67 Q66.6719,67 66.4063,66.7656 Q66.1406,66.5313 66.1406,66.1406 Q66.1406,65.7656 66.4063,65.5313 Q66.6719,65.2969 67.2813,65.2969 L69,65.2969 L69,58.6406 L67.2813,58.6406 Q66.6719,58.6406 66.4063,58.4063 Q66.1406,58.1719 66.1406,57.7813 Q66.1406,57.4063 66.4063,57.1719 Q66.6719,56.9375 67.2813,56.9375 L72.4219,56.9375 Q73.0313,56.9375 73.2969,57.1719 Q73.5625,57.4063 73.5625,57.7813 Q73.5625,58.1719 73.2969,58.4063 Q73.0313,58.6406 72.4219,58.6406 L70.7031,58.6406 Z " fill="#000000"/><text fill="#000000" font-family="sans-serif" font-size="14" font-style="italic" lengthAdjust="spacing" textLength="91" x="90.25" y="66.8535">IViewObserver</text><line style="stroke:#181818;stroke-width:0.5;" x1="8" x2="231" y1="78" y2="78"/><line style="stroke:#181818;stroke-width:0.5;" x1="8" x2="231" y1="86" y2="86"/><ellipse cx="18" cy="99.3203" fill="#84BE84" rx="3" ry="3" style="stroke:#038048;stroke-width:1.0;"/><text fill="#000000" font-family="sans-serif" font-size="14" lengthAdjust="spacing" textLength="199" x="27" y="102.6738">tileClicked(posX : int, posY : int)</text></g><!--MD5=[64a1ac72007cb7f57807247684a3decb]
class IModelObserver--><g id="elem_IModelObserver"><rect codeLine="8" fill="#F1F1F1" height="141.8438" id="IModelObserver" rx="2.5" ry="2.5" style="stroke:#181818;stroke-width:0.5;" width="425" x="267" y="7"/><ellipse cx="424.75" cy="23" fill="#B4A7E5" rx="11" ry="11" style="stroke:#181818;stroke-width:1.0;"/><path d="M425.7031,19.6406 L425.7031,26.2969 L427.4219,26.2969 Q428.0313,26.2969 428.2969,26.5313 Q428.5625,26.7656 428.5625,27.1563 Q428.5625,27.5313 428.2969,27.7656 Q428.0313,28 427.4219,28 L422.2813,28 Q421.6719,28 421.4063,27.7656 Q421.1406,27.5313 421.1406,27.1406 Q421.1406,26.7656 421.4063,26.5313 Q421.6719,26.2969 422.2813,26.2969 L424,26.2969 L424,19.6406 L422.2813,19.6406 Q421.6719,19.6406 421.4063,19.4063 Q421.1406,19.1719 421.1406,18.7813 Q421.1406,18.4063 421.4063,18.1719 Q421.6719,17.9375 422.2813,17.9375 L427.4219,17.9375 Q428.0313,17.9375 428.2969,18.1719 Q428.5625,18.4063 428.5625,18.7813 Q428.5625,19.1719 428.2969,19.4063 Q428.0313,19.6406 427.4219,19.6406 L425.7031,19.6406 Z " fill="#000000"/><text fill="#000000" font-family="sans-serif" font-size="14" font-style="italic" lengthAdjust="spacing" textLength="101" x="445.25" y="27.8535">IModelObserver</text><line style="stroke:#181818;stroke-width:0.5;" x1="268" x2="691" y1="39" y2="39"/><line style="stroke:#181818;stroke-width:0.5;" x1="268" x2="691" y1="47" y2="47"/><ellipse cx="278" cy="60.3203" fill="#84BE84" rx="3" ry="3" style="stroke:#038048;stroke-width:1.0;"/><text fill="#000000" font-family="sans-serif" font-size="14" lengthAdjust="spacing" textLength="399" x="287" y="63.6738">startGame(whitePlayerName : String, blackPlayerName : String)</text><ellipse cx="278" cy="75.9609" fill="#84BE84" rx="3" ry="3" style="stroke:#038048;stroke-width:1.0;"/><text fill="#000000" font-family="sans-serif" font-size="14" lengthAdjust="spacing" textLength="136" x="287" y="79.3145">tileSelected(tile : Tile)</text><ellipse cx="278" cy="91.6016" fill="#84BE84" rx="3" ry="3" style="stroke:#038048;stroke-width:1.0;"/><text fill="#000000" font-family="sans-serif" font-size="14" lengthAdjust="spacing" textLength="160" x="287" y="94.9551">movePiece(piece : Piece)</text><ellipse cx="278" cy="107.2422" fill="#84BE84" rx="3" ry="3" style="stroke:#038048;stroke-width:1.0;"/><text fill="#000000" font-family="sans-serif" font-size="14" lengthAdjust="spacing" textLength="78" x="287" y="110.5957">nextRound()</text><ellipse cx="278" cy="122.8828" fill="#84BE84" rx="3" ry="3" style="stroke:#038048;stroke-width:1.0;"/><text fill="#000000" font-family="sans-serif" font-size="14" lengthAdjust="spacing" textLength="187" x="287" y="126.2363">checkedMate(couleur : Color)</text><ellipse cx="278" cy="138.5234" fill="#84BE84" rx="3" ry="3" style="stroke:#038048;stroke-width:1.0;"/><text fill="#000000" font-family="sans-serif" font-size="14" lengthAdjust="spacing" textLength="91" x="287" y="141.877">checkedKing()</text></g><!--MD5=[5b9db63ab9a1a5d34ff181a42a21347f]
@startuml
'https://plantuml.com/class-diagram

interface IViewObserver
{
    + tileClicked(posX : int, posY : int)
}

interface IModelObserver
{
    + startGame(whitePlayerName : String, blackPlayerName : String)
    + tileSelected(tile : Tile)
    + movePiece(piece : Piece)
    + nextRound()
    + checkedMate(couleur : Color)
    + checkedKing()
}

@enduml

@startuml

interface IViewObserver
{
    + tileClicked(posX : int, posY : int)
}

interface IModelObserver
{
    + startGame(whitePlayerName : String, blackPlayerName : String)
    + tileSelected(tile : Tile)
    + movePiece(piece : Piece)
    + nextRound()
    + checkedMate(couleur : Color)
    + checkedKing()
}

@enduml

PlantUML version 1.2022.12(Sun Oct 23 20:12:26 CEST 2022)
(GPL source distribution)
Java Runtime: OpenJDK Runtime Environment
JVM: OpenJDK 64-Bit Server VM
Default Encoding: Cp1252
Language: fr
Country: FR
--></g></svg>