<?xml version="1.0" encoding="UTF-8" standalone="no"?>
<svg xmlns="http://www.w3.org/2000/svg" contentStyleType="text/css" height="232px" preserveAspectRatio="none"
     style="width:536px;height:232px;background:#FFFFFF;" version="1.1" viewBox="0 0 536 232" width="536px"
     zoomAndPan="magnify"><defs/><g><!--MD5=[c4f855dbe61583f9e7e86f378d1e1266]
class IViewObserver--><g id="elem_IViewObserver"><rect codeLine="3" fill="#F1F1F1" height="63.6406" id="IViewObserver" rx="2.5" ry="2.5" style="stroke:#181818;stroke-width:0.5;" width="225" x="155.5" y="162"/><ellipse cx="218.25" cy="178" fill="#B4A7E5" rx="11" ry="11" style="stroke:#181818;stroke-width:1.0;"/><path d="M219.2031,174.6406 L219.2031,181.2969 L220.9219,181.2969 Q221.5313,181.2969 221.7969,181.5313 Q222.0625,181.7656 222.0625,182.1563 Q222.0625,182.5313 221.7969,182.7656 Q221.5313,183 220.9219,183 L215.7813,183 Q215.1719,183 214.9063,182.7656 Q214.6406,182.5313 214.6406,182.1406 Q214.6406,181.7656 214.9063,181.5313 Q215.1719,181.2969 215.7813,181.2969 L217.5,181.2969 L217.5,174.6406 L215.7813,174.6406 Q215.1719,174.6406 214.9063,174.4063 Q214.6406,174.1719 214.6406,173.7813 Q214.6406,173.4063 214.9063,173.1719 Q215.1719,172.9375 215.7813,172.9375 L220.9219,172.9375 Q221.5313,172.9375 221.7969,173.1719 Q222.0625,173.4063 222.0625,173.7813 Q222.0625,174.1719 221.7969,174.4063 Q221.5313,174.6406 220.9219,174.6406 L219.2031,174.6406 Z " fill="#000000"/><text fill="#000000" font-family="sans-serif" font-size="14" font-style="italic" lengthAdjust="spacing" textLength="91" x="238.75" y="182.8535">IViewObserver</text><line style="stroke:#181818;stroke-width:0.5;" x1="156.5" x2="379.5" y1="194" y2="194"/><line style="stroke:#181818;stroke-width:0.5;" x1="156.5" x2="379.5" y1="202" y2="202"/><ellipse cx="166.5" cy="215.3203" fill="#84BE84" rx="3" ry="3" style="stroke:#038048;stroke-width:1.0;"/><text fill="#000000" font-family="sans-serif" font-size="14" lengthAdjust="spacing" textLength="199" x="175.5" y="218.6738">tileClicked(posX : int, posY : int)</text></g><!--MD5=[82d9c97a467af7c0b2c072e754b85475]
class GameController--><g id="elem_GameController"><rect codeLine="7" fill="#F1F1F1" height="94.9219" id="GameController" rx="2.5" ry="2.5" style="stroke:#181818;stroke-width:0.5;" width="522" x="7" y="7"/><ellipse cx="213.75" cy="23" fill="#ADD1B2" rx="11" ry="11" style="stroke:#181818;stroke-width:1.0;"/><path d="M216.5156,18.875 Q216.6719,18.6563 216.8594,18.5469 Q217.0469,18.4375 217.2656,18.4375 Q217.6406,18.4375 217.875,18.7031 Q218.1094,18.9531 218.1094,19.5625 L218.1094,21.0156 Q218.1094,21.625 217.875,21.8906 Q217.6406,22.1563 217.2656,22.1563 Q216.9219,22.1563 216.7188,21.9531 Q216.5156,21.7656 216.4063,21.25 Q216.3594,20.8906 216.1719,20.7031 Q215.8438,20.3281 215.2344,20.1094 Q214.625,19.8906 214,19.8906 Q213.2344,19.8906 212.5938,20.2188 Q211.9688,20.5469 211.4688,21.2969 Q210.9844,22.0469 210.9844,23.0781 L210.9844,24.1719 Q210.9844,25.4063 211.875,26.2344 Q212.7656,27.0469 214.3594,27.0469 Q215.2969,27.0469 215.9531,26.7969 Q216.3438,26.6406 216.7656,26.2031 Q217.0313,25.9375 217.1719,25.8594 Q217.3281,25.7813 217.5313,25.7813 Q217.8594,25.7813 218.1094,26.0469 Q218.375,26.2969 218.375,26.6406 Q218.375,26.9844 218.0313,27.3906 Q217.5313,27.9688 216.7344,28.2969 Q215.6563,28.75 214.3594,28.75 Q212.8438,28.75 211.6406,28.125 Q210.6563,27.625 209.9688,26.5625 Q209.2813,25.4844 209.2813,24.2031 L209.2813,23.0469 Q209.2813,21.7188 209.8906,20.5781 Q210.5156,19.4219 211.6094,18.8125 Q212.7031,18.1875 213.9375,18.1875 Q214.6719,18.1875 215.3125,18.3594 Q215.9688,18.5156 216.5156,18.875 Z " fill="#000000"/><text fill="#000000" font-family="sans-serif" font-size="14" lengthAdjust="spacing" textLength="100" x="234.25" y="27.8535">GameController</text><line style="stroke:#181818;stroke-width:0.5;" x1="8" x2="528" y1="39" y2="39"/><rect fill="none" height="6" style="stroke:#C82930;stroke-width:1.0;" width="6" x="15" y="49.3203"/><text fill="#000000" font-family="sans-serif" font-size="14" lengthAdjust="spacing" textLength="85" x="27" y="55.6738">game : Game</text><rect fill="none" height="6" style="stroke:#C82930;stroke-width:1.0;" width="6" x="15" y="64.9609"/><text fill="#000000" font-family="sans-serif" font-size="14" lengthAdjust="spacing" textLength="117" x="27" y="71.3145">view : ChessBoard</text><line style="stroke:#181818;stroke-width:0.5;" x1="8" x2="528" y1="78.2813" y2="78.2813"/><ellipse cx="18" cy="91.6016" fill="#84BE84" rx="3" ry="3" style="stroke:#038048;stroke-width:1.0;"/><text fill="#000000" font-family="sans-serif" font-size="14" lengthAdjust="spacing" textLength="496" x="27" y="94.9551">«Create» GameController(whitePlayerName : String, blackPlayerName : String)</text></g><!--MD5=[13b40c36b5a099ea89d015d07c30cc52]
link GameController to IViewObserver--><g id="link_GameController_IViewObserver"><path codeLine="13" d="M268,114.05 C268,114.05 268,137.8 268,148.36 " fill="none" id="GameController-IViewObserver" style="stroke:#181818;stroke-width:1.0;"/><polygon fill="#181818" points="268,161.65,272,152.65,268,156.65,264,152.65,268,161.65" style="stroke:#181818;stroke-width:1.0;"/><line style="stroke:#181818;stroke-width:1.0;" x1="268" x2="268" y1="156.65" y2="148.65"/><polygon fill="#181818" points="268,102.05,264,108.05,268,114.05,272,108.05,268,102.05" style="stroke:#181818;stroke-width:1.0;"/><text fill="#000000" font-family="sans-serif" font-size="13" lengthAdjust="spacing" textLength="67" x="194.0906" y="151.3937">implements</text></g><!--MD5=[63eece987da4e43b8dcdee4ac3ce299d]
@startuml
'https://plantuml.com/class-diagram

interface IViewObserver {
    + tileClicked(posX : int, posY : int)
}

class GameController {
    - game : Game
    - view : ChessBoard
    + <<Create>> GameController(whitePlayerName : String, blackPlayerName : String)
}

GameController *- -> "implements" IViewObserver

@enduml

@startuml

interface IViewObserver {
    + tileClicked(posX : int, posY : int)
}

class GameController {
    - game : Game
    - view : ChessBoard
    + <<Create>> GameController(whitePlayerName : String, blackPlayerName : String)
}

GameController *- -> "implements" IViewObserver

@enduml

PlantUML version 1.2022.12(Sun Oct 23 20:12:26 CEST 2022)
(GPL source distribution)
Java Runtime: OpenJDK Runtime Environment
JVM: OpenJDK 64-Bit Server VM
Default Encoding: Cp1252
Language: fr
Country: FR
--></g></svg>